<svg xmlns="http://www.w3.org/2000/svg" xmlns:xlink="http://www.w3.org/1999/xlink" width="859.395" height="719" viewBox="0 0 859.395 719">
  <defs>
    <linearGradient id="linear-gradient" y1="0.5" x2="1" y2="0.5" gradientUnits="objectBoundingBox">
      <stop offset="0" stop-color="gray" stop-opacity="0.251"/>
      <stop offset="0.535" stop-color="gray" stop-opacity="0.122"/>
      <stop offset="1" stop-color="gray" stop-opacity="0.102"/>
    </linearGradient>
  </defs>
  <g id="login" transform="translate(-0.004)">
    <path id="Trazado_346" data-name="Trazado 346" d="M601.7,76.854,332,242.825s0,342.314,269.7,529.031C871.4,585.139,871.4,242.825,871.4,242.825Z" transform="translate(-170.3 -66.108)" fill="#3f3d56"/>
    <path id="Trazado_347" data-name="Trazado 347" d="M603.31,76.854l-4.61,2.837V768.618c1.531,1.082,3.062,2.165,4.61,3.238,269.7-186.717,269.7-529.031,269.7-529.031Z" transform="translate(-170.3 -66.108)" fill="#aa6daa" opacity="0.04"/>
    <g id="Grupo_603" data-name="Grupo 603" opacity="0.7">
      <path id="Trazado_348" data-name="Trazado 348" d="M366.106,347.068l50.843,46.606,63.028-90.924L505.4,323.935l-88.45,112.109-72.028-80.5Z" fill="url(#linear-gradient)"/>
    </g>
    <path id="Trazado_349" data-name="Trazado 349" d="M378.106,349.868l41.243,37.806,58.428-85.924L498.4,318.935l-79.05,103.109-58.428-65.3Z" fill="#3ad29f"/>
    <path id="Trazado_350" data-name="Trazado 350" d="M335.59,114.064a3.675,3.675,0,0,1-2.047-4.441,1.765,1.765,0,0,0,.08-.408h0a1.843,1.843,0,0,0-3.31-1.221h0a1.766,1.766,0,0,0-.2.362,3.675,3.675,0,0,1-4.441,2.047,1.766,1.766,0,0,0-.408-.08h0a1.843,1.843,0,0,0-1.221,3.31h0a1.766,1.766,0,0,0,.362.2,3.675,3.675,0,0,1,2.047,4.441,1.765,1.765,0,0,0-.08.408h0a1.843,1.843,0,0,0,3.31,1.221h0a1.767,1.767,0,0,0,.2-.362,3.675,3.675,0,0,1,4.441-2.048,1.765,1.765,0,0,0,.408.08h0a1.843,1.843,0,0,0,1.221-3.31h0a1.768,1.768,0,0,0-.362-.2Z" transform="translate(-170.3 -66.108)" fill="#ffb301" opacity="0.5"/>
    <path id="Trazado_351" data-name="Trazado 351" d="M189.59,439.064a3.675,3.675,0,0,1-2.047-4.441,1.767,1.767,0,0,0,.08-.408h0a1.843,1.843,0,0,0-3.31-1.221h0a1.769,1.769,0,0,0-.2.362,3.675,3.675,0,0,1-4.441,2.048,1.767,1.767,0,0,0-.408-.08h0a1.843,1.843,0,0,0-1.221,3.31h0a1.767,1.767,0,0,0,.362.2,3.675,3.675,0,0,1,2.047,4.441,1.767,1.767,0,0,0-.08.408h0a1.843,1.843,0,0,0,3.31,1.221h0a1.766,1.766,0,0,0,.2-.362,3.675,3.675,0,0,1,4.441-2.047,1.767,1.767,0,0,0,.408.08h0a1.843,1.843,0,0,0,1.221-3.31h0a1.767,1.767,0,0,0-.362-.2Z" transform="translate(-170.3 -66.108)" fill="#faafa1" opacity="0.5"/>
    <circle id="Elipse_1" data-name="Elipse 1" cx="6" cy="6" r="6" transform="translate(742.399 248)" fill="#f55f44" opacity="0.5"/>
    <circle id="Elipse_2" data-name="Elipse 2" cx="6" cy="6" r="6" transform="translate(115.399 677)" fill="#f55f44" opacity="0.5"/>
    <circle id="Elipse_3" data-name="Elipse 3" cx="6" cy="6" r="6" transform="translate(844.399 479)" fill="#f55f44" opacity="0.5"/>
    <path id="Trazado_352" data-name="Trazado 352" d="M874.59,143.064a3.675,3.675,0,0,1-2.047-4.441,1.763,1.763,0,0,0,.08-.408h0a1.843,1.843,0,0,0-3.31-1.221h0a1.764,1.764,0,0,0-.2.362,3.675,3.675,0,0,1-4.441,2.048,1.764,1.764,0,0,0-.408-.08h0a1.843,1.843,0,0,0-1.221,3.31h0a1.764,1.764,0,0,0,.362.2,3.675,3.675,0,0,1,2.047,4.441,1.767,1.767,0,0,0-.08.408h0a1.843,1.843,0,0,0,3.31,1.221h0a1.764,1.764,0,0,0,.2-.362,3.675,3.675,0,0,1,4.441-2.047,1.766,1.766,0,0,0,.407.08h0a1.843,1.843,0,0,0,1.221-3.31h0A1.766,1.766,0,0,0,874.59,143.064Z" transform="translate(-170.3 -66.108)" fill="#ffd97f" opacity="0.5"/>
    <path id="Trazado_353" data-name="Trazado 353" d="M974.59,771.064a3.675,3.675,0,0,1-2.048-4.441,1.769,1.769,0,0,0,.08-.408h0a1.843,1.843,0,0,0-3.31-1.221h0a1.768,1.768,0,0,0-.2.362,3.675,3.675,0,0,1-4.441,2.047,1.763,1.763,0,0,0-.408-.08h0a1.843,1.843,0,0,0-1.221,3.31h0a1.772,1.772,0,0,0,.362.2,3.675,3.675,0,0,1,2.047,4.441,1.77,1.77,0,0,0-.08.408h0a1.843,1.843,0,0,0,3.31,1.221h0a1.759,1.759,0,0,0,.2-.362,3.675,3.675,0,0,1,4.441-2.047,1.763,1.763,0,0,0,.408.08h0a1.843,1.843,0,0,0,1.221-3.31h0a1.772,1.772,0,0,0-.362-.2Z" transform="translate(-170.3 -66.108)" fill="#ffb300" opacity="0.5"/>
    <path id="Trazado_354" data-name="Trazado 354" d="M182.59,249.064a3.675,3.675,0,0,1-2.047-4.441,1.767,1.767,0,0,0,.08-.408h0a1.843,1.843,0,0,0-3.31-1.221h0a1.766,1.766,0,0,0-.2.362,3.675,3.675,0,0,1-4.441,2.047,1.767,1.767,0,0,0-.408-.08h0a1.843,1.843,0,0,0-1.221,3.31h0a1.766,1.766,0,0,0,.362.2,3.675,3.675,0,0,1,2.047,4.441,1.767,1.767,0,0,0-.08.408h0a1.843,1.843,0,0,0,3.31,1.221h0a1.765,1.765,0,0,0,.2-.362,3.675,3.675,0,0,1,4.441-2.047,1.767,1.767,0,0,0,.408.08h0a1.843,1.843,0,0,0,1.221-3.31h0A1.767,1.767,0,0,0,182.59,249.064Z" transform="translate(-170.3 -66.108)" fill="#4d8af0" opacity="0.5"/>
    <circle id="Elipse_4" data-name="Elipse 4" cx="6" cy="6" r="6" transform="translate(73.399 278)" fill="#47e6b1" opacity="0.5"/>
    <circle id="Elipse_5" data-name="Elipse 5" cx="6" cy="6" r="6" transform="translate(847.399 326)" fill="#47e6b1" opacity="0.5"/>
    <g id="Grupo_604" data-name="Grupo 604" opacity="0.5">
      <rect id="Rectángulo_3" data-name="Rectángulo 3" width="3" height="17" transform="translate(583.399)" fill="#ffb300"/>
      <rect id="Rectángulo_4" data-name="Rectángulo 4" width="3" height="17" transform="translate(593.399 7) rotate(90)" fill="#ffb300"/>
    </g>
    <g id="Grupo_605" data-name="Grupo 605" opacity="0.5">
      <rect id="Rectángulo_5" data-name="Rectángulo 5" width="3" height="17" transform="translate(594.399 666)" fill="#47e6b1"/>
      <rect id="Rectángulo_6" data-name="Rectángulo 6" width="3" height="17" transform="translate(604.399 673) rotate(90)" fill="#47e6b1"/>
    </g>
    <g id="Grupo_606" data-name="Grupo 606" opacity="0.5">
      <rect id="Rectángulo_7" data-name="Rectángulo 7" width="3" height="17" transform="translate(26.399 702)" fill="#47e6b1"/>
      <rect id="Rectángulo_8" data-name="Rectángulo 8" width="3" height="17" transform="translate(36.399 709) rotate(90)" fill="#47e6b1"/>
    </g>
    <g id="Grupo_607" data-name="Grupo 607" opacity="0.5">
      <rect id="Rectángulo_9" data-name="Rectángulo 9" width="3" height="17" transform="translate(709.399 396)" fill="#47e6b1"/>
      <rect id="Rectángulo_10" data-name="Rectángulo 10" width="3" height="17" transform="translate(719.399 403) rotate(90)" fill="#47e6b1"/>
    </g>
    <path id="Trazado_355" data-name="Trazado 355" d="M795.606,123.018l6.443,5.906,9.128-13.424,3.222,2.685-12.35,16.109-9.128-10.2Z" fill="#ffd97f" opacity="0.5"/>
    <path id="Trazado_363" data-name="Trazado 363" d="M854.629,395.573c-6.4,11.664-22.5,27-30.708,44.119-2.144-7.723-4.759-15.715-4.759-15.715s-10.031-53.669,19.64-67.539a19.858,19.858,0,0,1,13.791,3.854C856.82,374.581,858.817,387.938,854.629,395.573Z" transform="translate(-170.3 -66.108)" opacity="0.1"/>
  </g>
</svg>
